Coordinates
version=1
nRows=31
nColumns=38
inDegrees=no

Units are S.I. units (second, meters, Newtons, ...)
If the header above contains a line with 'inDegrees', this indicates whether rotational values are in degrees (yes) or radians (no).

endheader
time	pelvis_tilt	pelvis_list	pelvis_rotation	pelvis_tx	pelvis_ty	pelvis_tz	hip_flexion_r	hip_adduction_r	hip_rotation_r	knee_angle_r	ankle_angle_r	subtalar_angle_r	mtp_angle_r	hip_flexion_l	hip_adduction_l	hip_rotation_l	knee_angle_l	ankle_angle_l	subtalar_angle_l	mtp_angle_l	lumbar_extension	lumbar_bending	lumbar_rotation	arm_flex_r	arm_add_r	arm_rot_r	elbow_flex_r	pro_sup_r	wrist_flex_r	wrist_dev_r	arm_flex_l	arm_add_l	arm_rot_l	elbow_flex_l	pro_sup_l	wrist_flex_l	wrist_dev_l
0	2.75775	1.38508	-1.01853	0.613776	-0.834423	0.936215	0.223069	0.00270068	-0.199145	0.588794	-0.217913	0	0	-0.425557	-0.193752	-0.223216	0.590175	-0.308772	0	0	-0.234427	0.139045	-0.253797	0.0458429	-0.296696	0.463127	0.706854	1.46624	0	0	-0.0257387	-0.289362	0.287242	0.833548	1.5708	0	0
0.01	2.73597	1.37981	-1.00231	0.615955	-0.823106	0.937391	0.210118	0.0157505	-0.199148	0.588312	-0.217004	0	0	-0.415159	-0.204552	-0.220785	0.634293	-0.324385	0	0	-0.235976	0.143869	-0.253293	0.0470205	-0.299223	0.474892	0.709944	1.46014	0	0	-0.0467296	-0.290374	0.277721	0.837582	1.5708	0	0
0.02	2.71977	1.37528	-0.991673	0.618195	-0.811942	0.938501	0.1955	0.02633	-0.202977	0.584971	-0.215248	0	0	-0.401894	-0.214303	-0.216054	0.681497	-0.343975	0	0	-0.237115	0.147469	-0.252264	0.0480298	-0.301727	0.485724	0.71378	1.45491	0	0	-0.0660618	-0.290591	0.268255	0.841476	1.5708	0	0
0.03	2.71144	1.37096	-0.988555	0.62038	-0.800943	0.939506	0.179536	0.035001	-0.207164	0.581869	-0.211248	0	0	-0.386661	-0.222515	-0.209136	0.73135	-0.365013	0	0	-0.23915	0.149316	-0.251118	0.0490543	-0.304375	0.495965	0.718903	1.44986	0	0	-0.08526	-0.292615	0.261046	0.847976	1.5708	0	0
0.04	2.70776	1.36734	-0.989266	0.62242	-0.790255	0.940411	0.163654	0.0416736	-0.211962	0.580292	-0.205283	0	0	-0.368339	-0.229006	-0.199401	0.783846	-0.382685	0	0	-0.241451	0.150307	-0.250089	0.0505435	-0.307057	0.505028	0.724504	1.4455	0	0	-0.102559	-0.294712	0.254725	0.854751	1.5708	0	0
0.05	2.70603	1.36494	-0.992089	0.624416	-0.780021	0.941175	0.149585	0.0468326	-0.21637	0.580698	-0.199036	0	0	-0.346925	-0.233397	-0.188	0.838197	-0.393623	0	0	-0.243546	0.149781	-0.247197	0.0521521	-0.309227	0.511682	0.729697	1.44281	0	0	-0.118767	-0.299116	0.252772	0.862334	1.5708	0	0
0.06	2.69903	1.36485	-0.990289	0.626297	-0.770228	0.94168	0.139578	0.0510693	-0.220963	0.583084	-0.19081	0	0	-0.320692	-0.23668	-0.176757	0.89572	-0.400111	0	0	-0.244375	0.149083	-0.24368	0.0554117	-0.311905	0.519162	0.735115	1.43866	0	0	-0.13371	-0.30345	0.251449	0.870818	1.5708	0	0
0.07	2.69369	1.36481	-0.988791	0.627848	-0.760514	0.942259	0.128689	0.0552807	-0.222283	0.583608	-0.182429	0	0	-0.293837	-0.239086	-0.164039	0.953059	-0.401313	0	0	-0.244963	0.148808	-0.240381	0.0588494	-0.314712	0.525661	0.739701	1.43398	0	0	-0.146605	-0.30627	0.249814	0.877868	1.5708	0	0
0.08	2.6926	1.3645	-0.990165	0.629167	-0.750985	0.943024	0.117054	0.0587586	-0.223019	0.582951	-0.175401	0	0	-0.266739	-0.240814	-0.151212	1.00982	-0.399758	0	0	-0.246396	0.148333	-0.237221	0.0631159	-0.316942	0.531379	0.74267	1.42914	0	0	-0.157388	-0.308654	0.248779	0.883648	1.5708	0	0
0.09	2.69618	1.36412	-0.995321	0.630364	-0.741711	0.944016	0.104245	0.0612575	-0.225324	0.579459	-0.170506	0	0	-0.239079	-0.241638	-0.138858	1.06546	-0.399034	0	0	-0.248618	0.147052	-0.233725	0.0685426	-0.31799	0.536183	0.743053	1.42415	0	0	-0.165979	-0.311415	0.249718	0.88778	1.5708	0	0
0.1	2.70053	1.36433	-1.00021	0.631442	-0.732576	0.945248	0.0904258	0.0635132	-0.227816	0.571639	-0.16712	0	0	-0.209838	-0.241512	-0.126025	1.11933	-0.396058	0	0	-0.238551	0.143746	-0.210837	0.0599919	-0.322845	0.530632	0.739588	1.4091	0	0	-0.150786	-0.316341	0.288855	0.868859	1.5708	0	0
0.11	2.71271	1.36376	-1.01303	0.632546	-0.723462	0.946653	0.0741725	0.0651049	-0.228738	0.562684	-0.165363	0	0	-0.183068	-0.239903	-0.115463	1.16755	-0.385489	0	0	-0.237579	0.140435	-0.19622	0.0572213	-0.325109	0.52523	0.73891	1.40283	0	0	-0.145687	-0.321921	0.311977	0.862665	1.5708	0	0
0.12	2.73074	1.3626	-1.03127	0.633652	-0.714482	0.948153	0.0561262	0.0664406	-0.22756	0.552582	-0.163314	0	0	-0.157778	-0.236984	-0.105677	1.21035	-0.36568	0	0	-0.237638	0.135812	-0.180604	0.0544988	-0.326074	0.51744	0.736541	1.39921	0	0	-0.140248	-0.326029	0.329544	0.858244	1.5708	0	0
0.13	2.75009	1.36171	-1.0507	0.634711	-0.705569	0.949662	0.0375719	0.0678049	-0.224038	0.541398	-0.160772	0	0	-0.132869	-0.233319	-0.0967936	1.24812	-0.339888	0	0	-0.237336	0.130744	-0.164759	0.0516444	-0.326199	0.507196	0.733273	1.39936	0	0	-0.133161	-0.33061	0.349879	0.852556	1.5708	0	0
0.14	2.78588	1.36013	-1.08483	0.636365	-0.695666	0.9504	0.0156803	0.0663919	-0.227944	0.533689	-0.151195	0	0	-0.112215	-0.230873	-0.0933933	1.28199	-0.31133	0	0	-0.37622	0.0966752	0.0939497	-0.203517	-0.267056	-0.0152427	0.962547	1.5708	0	0	0.0382933	-0.368126	0.561227	0.931546	1.5708	0	0
0.15	2.81124	1.35593	-1.11198	0.637177	-0.686804	0.951798	-0.00640621	0.0668707	-0.226168	0.5239	-0.148863	0	0	-0.0923333	-0.227444	-0.0912049	1.31066	-0.295748	0	0	-0.379732	0.0907191	0.105005	-0.20391	-0.267871	-0.0227883	0.964355	1.5708	0	0	0.0409948	-0.372812	0.573052	0.931952	1.5708	0	0
0.16	2.85259	1.34615	-1.15441	0.638146	-0.678798	0.953494	-0.0345781	0.0663462	-0.224596	0.513766	-0.146433	0	0	-0.0781808	-0.222558	-0.088238	1.33499	-0.281227	0	0	-0.391929	0.0821074	0.113471	-0.200266	-0.270146	-0.0254205	0.967469	1.5708	0	0	0.0416707	-0.379269	0.576942	0.940843	1.5708	0	0
0.17	2.90972	1.32738	-1.21157	0.639283	-0.671607	0.955665	-0.0731244	0.0648505	-0.224747	0.501493	-0.144489	0	0	-0.0741212	-0.216808	-0.0857514	1.35307	-0.268531	0	0	-0.416708	0.070668	0.120129	-0.194436	-0.272913	-0.026846	0.974924	1.5708	0	0	0.0421203	-0.389796	0.57735	0.959581	1.5708	0	0
0.18	2.90857	1.34245	-1.21335	0.640107	-0.660944	0.955732	-0.0756619	0.0626903	-0.226761	0.48799	-0.142887	0	0	-0.0355686	-0.212445	-0.0881837	1.36672	-0.253094	0	0	-0.411464	0.0553083	0.172477	-0.229603	-0.258663	-0.0902226	0.992892	1.5708	0	0	0.0748113	-0.388553	0.625788	0.954362	1.5708	0	0
0.19	2.91265	1.33535	-1.22181	0.639515	-0.655265	0.957479	-0.0928007	0.06527	-0.214321	0.479494	-0.147074	0	0	-0.012734	-0.207577	-0.0827619	1.37939	-0.244813	0	0	-0.312491	0.101502	-0.197807	0.13345	-0.287494	0.482717	0.71555	1.56321	0	0	-0.236165	-0.333636	0.205387	0.949671	1.5708	0	0
0.2	2.94558	1.32784	-1.25588	0.640344	-0.647165	0.958689	-0.118364	0.0624845	-0.217705	0.468206	-0.145438	0	0	0.00206178	-0.203854	-0.0874637	1.38245	-0.238441	0	0	-0.324376	0.0940097	-0.22391	0.181479	-0.286918	0.570752	0.693328	1.5068	0	0	-0.271799	-0.321597	0.143217	0.971216	1.5708	0	0
0.21	2.97069	1.3252	-1.28358	0.641184	-0.638907	0.959573	-0.137648	0.0591752	-0.218578	0.458977	-0.143255	0	0	0.0214173	-0.200141	-0.0947202	1.38087	-0.232798	0	0	-0.329755	0.0870645	-0.22043	0.191428	-0.28698	0.576629	0.694482	1.49801	0	0	-0.276837	-0.322686	0.136953	0.975881	1.5708	0	0
0.22	2.99696	1.31905	-1.31243	0.642015	-0.63071	0.960582	-0.161842	0.056521	-0.219387	0.446551	-0.141697	0	0	0.0354046	-0.198195	-0.105572	1.37395	-0.226281	0	0	-0.339384	0.0802131	-0.217776	0.202225	-0.286592	0.582383	0.69685	1.48688	0	0	-0.283002	-0.323606	0.127905	0.982996	1.5708	0	0
0.23	3.02144	1.31156	-1.33957	0.642766	-0.622499	0.961516	-0.187554	0.0539949	-0.220955	0.433422	-0.14095	0	0	0.046998	-0.197894	-0.120098	1.36264	-0.221373	0	0	-0.350357	0.0738274	-0.215342	0.212523	-0.286605	0.587309	0.701344	1.47637	0	0	-0.289477	-0.324088	0.117841	0.990874	1.5708	0	0
0.24	3.04229	1.30263	-1.36385	0.643559	-0.614256	0.962429	-0.215079	0.0524269	-0.22132	0.418445	-0.141371	0	0	0.05549	-0.199871	-0.139074	1.34656	-0.217124	0	0	-0.362667	0.0680253	-0.212059	0.222408	-0.286637	0.590945	0.706956	1.46534	0	0	-0.295914	-0.324351	0.107842	0.999139	1.5708	0	0
0.25	3.06035	1.29131	-1.3859	0.644345	-0.606002	0.963374	-0.246036	0.0518262	-0.22049	0.400266	-0.143752	0	0	0.0594437	-0.204332	-0.163258	1.32589	-0.214559	0	0	-0.377818	0.0627474	-0.208372	0.232381	-0.28768	0.595843	0.714951	1.4523	0	0	-0.302569	-0.323986	0.096257	1.00879	1.5708	0	0
0.26	3.07601	1.28046	-1.40527	0.645032	-0.597633	0.964093	-0.275887	0.0509696	-0.221397	0.3837	-0.145906	0	0	0.0624188	-0.210216	-0.191147	1.30167	-0.214102	0	0	-0.392007	0.0577735	-0.205038	0.24181	-0.289174	0.601085	0.723911	1.4397	0	0	-0.30903	-0.323079	0.0844972	1.01809	1.5708	0	0
0.27	3.08917	1.27045	-1.42257	0.645677	-0.589212	0.964632	-0.30416	0.0496979	-0.223917	0.368665	-0.147723	0	0	0.0640157	-0.216866	-0.222158	1.27315	-0.21523	0	0	-0.404908	0.0531093	-0.201527	0.251102	-0.290578	0.606461	0.732671	1.42867	0	0	-0.314584	-0.321756	0.073581	1.02584	1.5708	0	0
0.28	3.1011	1.25977	-1.43904	0.646233	-0.580879	0.965105	-0.333099	0.0483948	-0.223335	0.353653	-0.149105	0	0	0.0622734	-0.222562	-0.253812	1.23911	-0.218227	0	0	-0.418598	0.0485761	-0.19772	0.260635	-0.292354	0.612267	0.74205	1.41792	0	0	-0.320067	-0.320339	0.0634508	1.03387	1.5708	0	0
0.29	3.11152	1.24947	-1.45372	0.64668	-0.572619	0.965447	-0.361533	0.0469859	-0.22323	0.338496	-0.15043	0	0	0.0592028	-0.226496	-0.284415	1.19942	-0.223004	0	0	-0.431973	0.0443128	-0.193871	0.270133	-0.294344	0.618064	0.75157	1.40726	0	0	-0.324862	-0.318978	0.0546025	1.04146	1.5708	0	0
0.3	3.12032	1.24108	-1.46621	0.646993	-0.564357	0.965572	-0.387043	0.0454506	-0.223579	0.325363	-0.151331	0	0	0.0570766	-0.228175	-0.312869	1.15468	-0.229635	0	0	-0.44325	0.0403979	-0.190124	0.279179	-0.29622	0.623451	0.76056	1.398	0	0	-0.328025	-0.317484	0.0469925	1.04709	1.5708	0	0
